<?xml version="1.0" encoding="utf-8"?>
<!-- Generator: Adobe Illustrator 24.0.3, SVG Export Plug-In . SVG Version: 6.00 Build 0)  -->
<svg version="1.1" id="Layer_1" xmlns="http://www.w3.org/2000/svg" xmlns:xlink="http://www.w3.org/1999/xlink" x="0px" y="0px"
	 viewBox="0 0 682 682" style="enable-background:new 0 0 682 682;" xml:space="preserve">
<style type="text/css">
	.st0{fill:#FFFFFF;}
</style>
<path class="st0" d="M597.8,557.3L412.6,237V58.4h37.5V21H225.3v37.5h37.5V237L77.6,557.3c-12.4,21.5-12.4,47.2,0,68.7
	c12.4,21.5,34.7,34.4,59.5,34.4h401.3c24.8,0,47.1-12.8,59.5-34.4C610.3,604.5,610.2,578.8,597.8,557.3z M206.6,484.3
	c0-13.8,11.2-25,25-25c13.8,0,25,11.2,25,25s-11.2,25-25,25C217.8,509.3,206.6,498.1,206.6,484.3z M256.5,584.2
	c-13.8,0-25-11.2-25-25s11.2-25,25-25c13.8,0,25,11.2,25,25S270.3,584.2,256.5,584.2z M368.9,528c-20.7,0-37.5-16.8-37.5-37.5
	s16.8-37.5,37.5-37.5c20.7,0,37.5,16.8,37.5,37.5S389.6,528,368.9,528z M234.6,360.6L300.2,247V58.4h74.9V247l65.7,113.6H234.6z
	 M481.3,584.2c-13.8,0-25-11.2-25-25s11.2-25,25-25c13.8,0,25,11.2,25,25S495.1,584.2,481.3,584.2z"/>
</svg>
