<?xml version="1.0" encoding="utf-8"?>
<!-- Generator: Adobe Illustrator 24.0.3, SVG Export Plug-In . SVG Version: 6.00 Build 0)  -->
<svg version="1.1" id="Capa_1" xmlns="http://www.w3.org/2000/svg" xmlns:xlink="http://www.w3.org/1999/xlink" x="0px" y="0px"
	 viewBox="0 0 25.7 25.7" style="enable-background:new 0 0 25.7 25.7;" xml:space="preserve">
<style type="text/css">
	.st0{fill:#FFFFFF;}
</style>
<g>
	<g>
		<path class="st0" d="M16.4,15.7c-0.2-0.1-1.2-0.5-0.5-2.4h0c1.6-1.7,2.9-4.4,2.9-7.1C18.8,2.2,16,0,12.9,0C9.7,0,7,2.2,7,6.3
			c0,2.7,1.2,5.4,2.9,7.1c0.6,1.7-0.5,2.3-0.7,2.4c-3.3,1.2-7.2,3.4-7.2,5.6c0,0.6,0,0.2,0,0.8c0,2.9,5.7,3.6,11,3.6
			c5.3,0,10.9-0.7,10.9-3.6c0-0.6,0-0.2,0-0.8C23.8,19.1,19.9,16.9,16.4,15.7z"/>
	</g>
</g>
</svg>
