<?xml version="1.0" encoding="utf-8"?>
<!-- Generator: Adobe Illustrator 24.0.3, SVG Export Plug-In . SVG Version: 6.00 Build 0)  -->
<svg version="1.1" id="Capa_1" xmlns="http://www.w3.org/2000/svg" xmlns:xlink="http://www.w3.org/1999/xlink" x="0px" y="0px"
	 viewBox="0 0 402 402" style="enable-background:new 0 0 402 402;" xml:space="preserve">
<style type="text/css">
	.st0{fill:#FFFFFF;}
</style>
<g>
	<path class="st0" d="M344,281.7c-1.7-1.8-3.9-2.7-6.6-2.7h-46.3c-2.7,0-4.9,0.9-6.6,2.7s-2.6,3.9-2.6,6.4v51.7H163.9V231.6H251
		c2.5,0,4.6-0.9,6.4-2.7c1.8-1.8,2.7-3.9,2.7-6.4V185c0-2.7-0.9-4.9-2.7-6.6c-1.8-1.7-3.9-2.6-6.4-2.6h-87.1v-61.4
		c0-14.5,4.9-26.2,14.8-35.1c9.9-8.9,22.9-13.4,39.1-13.4c8.6,0,17.4,1.7,26.6,5.1c9.1,3.4,15.7,6.5,19.7,9.1c4,2.7,6.5,4.5,7.4,5.4
		c1.9,1.7,4.1,2.4,6.6,2c2.5-0.2,4.6-1.3,6.3-3.4L313.8,48c1.5-1.9,2.2-4,2-6.4c-0.2-2.4-1.1-4.3-2.9-5.9
		C284.4,11.9,252.5,0,217.3,0c-36.4,0-66.3,10.6-89.8,31.7c-23.5,21.1-35.3,48-35.3,80.5v63.7H65.1c-2.7,0-4.9,0.9-6.6,2.6
		c-1.7,1.7-2.6,3.9-2.6,6.6v37.4c0,2.5,0.9,4.6,2.6,6.4c1.7,1.8,3.9,2.7,6.6,2.7h27.1v109.3H64.5c-2.5,0-4.6,0.9-6.4,2.7
		c-1.8,1.8-2.7,4-2.7,6.4v42.8c0,2.7,0.9,4.9,2.6,6.6c1.7,1.7,3.9,2.6,6.6,2.6h272.9c2.7,0,4.9-0.9,6.6-2.6c1.7-1.7,2.6-3.9,2.6-6.6
		V288.1C346.6,285.6,345.7,283.5,344,281.7z"/>
</g>
</svg>
